<svg width="28" height="28" viewBox="0 0 28 28" fill="none" xmlns="http://www.w3.org/2000/svg">
<g clip-path="url(#clip0_156_752)">
<path d="M22.1667 4.66665H21V3.49998C21 2.85831 20.475 2.33331 19.8333 2.33331C19.1917 2.33331 18.6667 2.85831 18.6667 3.49998V4.66665H9.33333V3.49998C9.33333 2.85831 8.80833 2.33331 8.16667 2.33331C7.525 2.33331 7 2.85831 7 3.49998V4.66665H5.83333C4.53833 4.66665 3.51167 5.71665 3.51167 6.99998L3.5 23.3333C3.5 24.6166 4.53833 25.6666 5.83333 25.6666H22.1667C23.45 25.6666 24.5 24.6166 24.5 23.3333V6.99998C24.5 5.71665 23.45 4.66665 22.1667 4.66665ZM22.1667 22.1666C22.1667 22.8083 21.6417 23.3333 21 23.3333H7C6.35833 23.3333 5.83333 22.8083 5.83333 22.1666V10.5H22.1667V22.1666ZM8.16667 12.8333H10.5V15.1666H8.16667V12.8333ZM12.8333 12.8333H15.1667V15.1666H12.8333V12.8333ZM17.5 12.8333H19.8333V15.1666H17.5V12.8333Z" fill="url(#paint0_linear_156_752)"/>
</g>
<defs>
<linearGradient id="paint0_linear_156_752" x1="3.5" y1="12.1896" x2="24.5077" y2="12.2837" gradientUnits="userSpaceOnUse">
<stop stop-color="#FF9B28"/>
<stop offset="1" stop-color="#E28821"/>
</linearGradient>
<clipPath id="clip0_156_752">
<rect width="28" height="28" fill="white"/>
</clipPath>
</defs>
</svg>
