<svg width="19" height="18" viewBox="0 0 19 18" fill="none" xmlns="http://www.w3.org/2000/svg">
<g clip-path="url(#clip0_83_1022)">
<path d="M15.5 3H3.5C2.675 3 2.0075 3.675 2.0075 4.5L2 13.5C2 14.325 2.675 15 3.5 15H15.5C16.325 15 17 14.325 17 13.5V4.5C17 3.675 16.325 3 15.5 3ZM15.2 6.1875L9.8975 9.5025C9.6575 9.6525 9.3425 9.6525 9.1025 9.5025L3.8 6.1875C3.6125 6.0675 3.5 5.865 3.5 5.6475C3.5 5.145 4.0475 4.845 4.475 5.1075L9.5 8.25L14.525 5.1075C14.9525 4.845 15.5 5.145 15.5 5.6475C15.5 5.865 15.3875 6.0675 15.2 6.1875Z" fill="#EB623E"/>
</g>
<defs>
<clipPath id="clip0_83_1022">
<rect width="18" height="18" fill="white" transform="translate(0.5)"/>
</clipPath>
</defs>
</svg>
