<svg width="18" height="18" viewBox="0 0 18 18" fill="none" xmlns="http://www.w3.org/2000/svg">
<g clip-path="url(#clip0_83_1053)">
<path d="M3.74996 9.88496V11.9925C3.74996 12.54 4.04996 13.05 4.52996 13.3125L8.27996 15.36C8.72996 15.6075 9.26996 15.6075 9.71996 15.36L13.47 13.3125C13.95 13.05 14.25 12.54 14.25 11.9925V9.88496L9.71996 12.36C9.26996 12.6075 8.72996 12.6075 8.27996 12.36L3.74996 9.88496ZM8.27996 2.63996L1.95746 6.08996C1.43996 6.37496 1.43996 7.12496 1.95746 7.40996L8.27996 10.86C8.72996 11.1075 9.26996 11.1075 9.71996 10.86L15.75 7.56746V12C15.75 12.4125 16.0875 12.75 16.5 12.75C16.9125 12.75 17.25 12.4125 17.25 12V7.19246C17.25 6.91496 17.1 6.66746 16.86 6.53246L9.71996 2.63996C9.26996 2.39996 8.72996 2.39996 8.27996 2.63996Z" fill="#EB623E"/>
</g>
<defs>
<clipPath id="clip0_83_1053">
<rect width="18" height="18" fill="white"/>
</clipPath>
</defs>
</svg>
