<svg width="18" height="18" viewBox="0 0 18 18" fill="none" xmlns="http://www.w3.org/2000/svg">
<g clip-path="url(#clip0_83_1050)">
<path d="M14.4223 11.4451L12.5173 11.2276C12.0598 11.1751 11.6098 11.3326 11.2873 11.6551L9.90729 13.0351C7.78479 11.9551 6.04479 10.2226 4.96479 8.09257L6.35229 6.70507C6.67479 6.38257 6.83229 5.93257 6.77979 5.47507L6.56229 3.58507C6.47229 2.82757 5.83479 2.25757 5.06979 2.25757H3.77229C2.92479 2.25757 2.21979 2.96257 2.27229 3.81007C2.66979 10.2151 7.79229 15.3301 14.1898 15.7276C15.0373 15.7801 15.7423 15.0751 15.7423 14.2276V12.9301C15.7498 12.1726 15.1798 11.5351 14.4223 11.4451Z" fill="#EB623E"/>
</g>
<defs>
<clipPath id="clip0_83_1050">
<rect width="18" height="18" fill="white"/>
</clipPath>
</defs>
</svg>
